<?xml version="1.0" standalone="no"?>
<!DOCTYPE svg PUBLIC "-//W3C//DTD SVG 20010904//EN"
 "http://www.w3.org/TR/2001/REC-SVG-20010904/DTD/svg10.dtd">
<svg version="1.0" xmlns="http://www.w3.org/2000/svg"
 width="900.000000pt" height="900.000000pt" viewBox="0 0 900.000000 900.000000"
 preserveAspectRatio="xMidYMid meet">
<metadata>
Created by potrace 1.10, written by Peter Selinger 2001-2011
</metadata>
<g transform="translate(0.000000,900.000000) scale(0.100000,-0.100000)"
fill="#ff9900" stroke="none">
<path d="M3702 5254 c-18 -12 -22 -24 -20 -52 4 -47 43 -65 86 -41 35 19 40
54 11 85 -26 28 -46 30 -77 8z"/>
<path d="M6715 5257 c-3 -7 -4 -134 -3 -282 l3 -270 39 -3 c24 -2 42 2 47 10
10 15 12 518 3 542 -8 20 -82 22 -89 3z"/>
<path d="M5169 5219 c-12 -22 -15 -463 -4 -500 9 -29 70 -26 89 4 13 19 14 41
6 132 -5 61 -12 124 -16 142 -3 18 -3 40 0 50 6 15 11 13 33 -16 14 -18 41
-63 59 -100 18 -38 40 -74 48 -80 38 -32 82 7 140 124 13 28 34 56 47 63 21
13 21 13 16 -20 -3 -18 -9 -90 -13 -161 -7 -145 -3 -157 56 -157 27 0 40 5 45
18 4 9 7 124 7 255 0 257 -2 267 -53 267 -23 0 -34 -9 -55 -42 -15 -24 -49
-77 -75 -118 -27 -41 -49 -79 -49 -86 0 -16 -30 -26 -44 -15 -6 5 -20 27 -31
48 -11 21 -39 66 -62 101 -24 35 -43 67 -43 71 0 4 -8 15 -18 24 -26 24 -69
22 -83 -4z"/>
<path d="M3226 5101 c-15 -17 -17 -47 -17 -277 0 -234 2 -260 17 -271 25 -19
58 -16 78 6 14 16 16 31 10 95 -6 64 -4 76 8 76 9 0 21 -6 27 -13 18 -22 88
-39 110 -27 11 5 28 10 38 10 25 0 86 65 104 110 7 19 13 64 12 100 -1 125
-75 209 -184 210 -43 0 -60 -4 -74 -20 -10 -11 -26 -20 -36 -20 -10 0 -23 9
-29 20 -13 25 -42 26 -64 1z m250 -89 c29 -23 54 -74 54 -111 0 -35 -34 -97
-60 -111 -10 -6 -37 -10 -60 -10 -33 0 -48 6 -71 29 -26 26 -29 36 -29 91 0
57 3 65 34 96 27 27 42 34 73 34 21 0 48 -8 59 -18z"/>
<path d="M3706 5101 c-15 -17 -18 -44 -19 -201 -1 -103 2 -185 8 -191 13 -13
72 -11 82 4 12 19 10 363 -2 380 -18 25 -50 29 -69 8z"/>
<path d="M3959 5102 c-74 -49 -99 -100 -99 -202 0 -158 107 -239 265 -203 86
20 119 68 75 108 -19 17 -23 17 -70 -10 -38 -22 -108 -19 -146 7 -31 21 -49
53 -38 69 2 4 64 7 137 7 74 -1 139 2 145 6 19 11 14 78 -8 123 -11 23 -39 58
-63 77 -41 33 -49 36 -108 35 -42 0 -73 -6 -90 -17z m159 -90 c16 -10 22 -23
20 -41 -3 -25 -4 -25 -98 -26 -94 0 -95 0 -92 24 6 60 105 85 170 43z"/>
<path d="M4410 5105 c-7 -8 -17 -15 -22 -15 -9 0 -55 -49 -70 -75 -4 -6 -12
-40 -17 -75 -23 -141 60 -249 194 -252 101 -2 171 44 147 97 -16 34 -38 41
-63 19 -14 -12 -36 -18 -74 -18 -46 -1 -59 3 -82 26 -22 22 -27 39 -31 88 -4
59 -4 61 32 95 31 29 45 35 80 35 27 0 48 -6 56 -16 8 -9 25 -14 44 -12 27 3
31 7 34 37 3 27 -2 39 -25 57 -24 20 -39 23 -109 24 -61 0 -85 -4 -94 -15z"/>
<path d="M4783 5091 c-49 -35 -76 -79 -94 -148 -10 -41 -10 -58 -1 -78 7 -14
12 -35 12 -45 0 -10 22 -41 48 -67 39 -39 59 -51 105 -61 40 -9 62 -10 76 -2
11 5 29 10 40 10 11 0 36 9 55 21 41 24 47 56 18 82 -24 22 -34 21 -63 -4 -20
-18 -34 -20 -86 -17 -52 3 -66 8 -87 31 -14 16 -26 37 -26 47 0 18 7 19 128
16 136 -4 167 2 176 32 12 37 -64 182 -96 182 -5 0 -16 7 -24 15 -11 10 -36
15 -78 15 -54 0 -69 -4 -103 -29z m175 -84 c13 -12 22 -30 20 -41 -3 -19 -10
-20 -98 -20 -81 0 -95 2 -98 17 -4 20 41 64 71 70 36 7 81 -4 105 -26z"/>
<path d="M5833 5072 c-75 -76 -95 -170 -54 -264 36 -85 114 -123 228 -112 52
5 67 12 99 40 l37 34 -23 25 c-28 29 -42 31 -66 8 -26 -26 -130 -25 -166 2
-25 19 -42 58 -30 70 3 3 64 5 137 5 137 0 155 5 155 45 0 51 -24 100 -72 147
l-49 48 -74 0 -74 0 -48 -48z m177 -51 c27 -14 35 -25 35 -47 l0 -28 -95 3
c-52 1 -96 4 -98 5 -8 9 18 50 43 66 38 25 71 25 115 1z"/>
<path d="M6291 5090 c-27 -20 -49 -47 -61 -76 -22 -51 -29 -169 -11 -187 6 -6
11 -19 11 -28 0 -30 72 -91 123 -104 25 -6 52 -8 59 -4 7 5 23 9 34 9 12 0 27
7 34 15 7 8 20 15 30 15 10 0 20 -7 24 -15 7 -20 50 -19 68 3 12 14 14 49 12
195 -2 118 -7 184 -15 193 -15 18 -53 18 -69 -1 -7 -8 -20 -15 -30 -15 -10 0
-23 7 -30 15 -9 10 -32 15 -75 15 -53 0 -68 -4 -104 -30z m186 -79 c48 -40 52
-161 8 -199 -13 -12 -43 -24 -67 -27 -38 -6 -49 -3 -74 19 -17 13 -36 43 -44
65 -11 34 -11 45 4 82 9 23 27 50 39 60 29 25 104 25 134 0z"/>
<path d="M1763 4872 c-32 -36 -33 -39 -33 -135 0 -138 -2 -140 -103 -131 -45
3 -94 13 -109 20 -33 17 -100 18 -115 3 -6 -6 -21 -16 -34 -23 -45 -23 -64
-62 -63 -132 0 -57 4 -68 29 -94 16 -17 49 -40 73 -52 40 -19 49 -20 76 -8 17
7 59 16 93 21 35 4 72 13 82 19 27 14 37 13 55 -6 13 -12 16 -39 16 -128 l0
-112 38 -37 38 -37 528 0 c528 1 528 1 558 23 58 43 60 58 54 422 -3 182 -8
341 -12 355 -4 14 -19 35 -33 47 l-26 22 -540 0 -540 0 -32 -37z m1079 -384
c2 -183 1 -336 -2 -340 -3 -5 -228 -8 -498 -9 -374 -1 -496 2 -507 11 -12 10
-15 39 -15 135 0 156 -6 165 -106 165 -38 0 -101 -7 -139 -15 -134 -28 -185
-16 -185 45 0 36 45 71 75 60 11 -4 84 -16 163 -26 l143 -18 22 22 c20 20 22
34 26 150 1 70 8 133 13 140 8 9 122 12 508 12 l498 0 4 -332z"/>
<path d="M1440 4482 c0 -14 11 -21 26 -15 8 3 11 9 8 14 -7 11 -34 12 -34 1z"/>
<path d="M3733 4138 c-4 -13 -8 -45 -8 -73 0 -50 0 -50 -35 -53 -19 -2 -41 -9
-48 -15 -38 -31 -54 -139 -30 -194 24 -52 43 -66 93 -65 85 2 80 -12 80 204 0
106 -4 199 -8 206 -13 19 -35 14 -44 -10z m-6 -192 c4 -8 6 -44 5 -80 -3 -62
-5 -66 -27 -66 -31 0 -55 35 -55 80 0 61 54 107 77 66z"/>
<path d="M3847 4106 c-15 -22 -14 -25 8 -46 19 -18 27 -20 44 -11 24 13 27 46
7 67 -21 21 -42 17 -59 -10z"/>
<path d="M7208 4105 c-10 -22 -9 -29 9 -46 17 -18 24 -19 42 -9 17 9 21 19 19
43 -2 27 -8 33 -30 35 -22 3 -30 -2 -40 -23z"/>
<path d="M7073 4103 c-8 -3 -13 -23 -13 -48 0 -24 -4 -47 -10 -50 -6 -4 -4
-17 5 -35 10 -19 14 -53 12 -102 -2 -86 19 -127 66 -128 34 0 37 29 7 67 -29
37 -28 121 2 158 l22 28 -22 15 c-17 11 -20 20 -15 44 5 23 2 34 -12 45 -20
14 -23 14 -42 6z"/>
<path d="M7364 4102 c-18 -3 -22 -12 -26 -60 -3 -31 -1 -67 3 -80 5 -12 6 -48
3 -80 -4 -48 -1 -64 18 -97 19 -32 30 -41 56 -43 47 -5 53 22 13 58 -28 26
-31 34 -31 89 0 54 3 62 25 77 32 21 32 32 0 44 -23 9 -25 14 -20 43 7 38 -7
55 -41 49z"/>
<path d="M6653 4016 l-42 -10 -3 -160 c-4 -195 -3 -198 31 -194 22 3 27 9 31
43 4 35 9 40 33 43 53 6 87 62 87 143 0 102 -52 154 -137 135z m66 -72 c30
-39 28 -103 -4 -134 -38 -36 -55 -14 -55 69 0 90 21 113 59 65z"/>
<path d="M3277 4013 l-48 -4 3 -132 3 -132 33 -3 c37 -4 35 -9 32 109 -2 87
-2 87 27 101 19 9 28 21 28 38 0 27 -5 29 -78 23z"/>
<path d="M3447 4013 c-24 -6 -67 -94 -67 -138 0 -43 31 -108 62 -129 27 -19
78 -21 101 -3 16 11 16 14 2 35 -11 15 -26 22 -50 22 -25 0 -37 6 -46 21 -15
29 -3 37 56 41 l50 3 3 40 c7 80 -40 126 -111 108z m51 -85 c3 -26 -18 -40
-45 -31 -19 7 -16 40 5 52 24 15 37 8 40 -21z"/>
<path d="M4008 4014 c-23 -7 -41 -57 -33 -92 3 -16 22 -43 41 -60 41 -36 40
-56 -2 -60 -27 -3 -54 -25 -54 -44 0 -15 54 -29 88 -23 26 5 37 14 48 41 19
44 11 69 -33 116 -40 41 -39 65 4 70 22 2 28 8 28 28 0 22 -5 25 -35 27 -19 0
-42 -1 -52 -3z"/>
<path d="M4185 3993 c-31 -34 -40 -77 -31 -151 9 -73 38 -107 96 -107 49 0 66
15 51 44 -8 14 -21 21 -40 21 -34 0 -49 15 -57 58 -6 30 10 91 25 93 3 0 16 2
29 3 13 2 31 10 40 20 16 16 16 18 -2 32 -33 23 -82 18 -111 -13z"/>
<path d="M4372 3990 c-49 -53 -50 -174 -2 -226 32 -33 97 -34 129 0 40 43 38
175 -3 229 -8 10 -33 21 -55 24 -35 5 -43 2 -69 -27z m87 -43 c19 -23 24 -73
11 -112 -10 -31 -16 -36 -38 -33 -19 2 -28 11 -34 33 -22 75 23 157 61 112z"/>
<path d="M4561 4011 c-11 -7 -10 -16 7 -52 11 -24 25 -60 30 -79 6 -19 16 -54
23 -78 7 -24 18 -51 25 -60 11 -15 14 -14 24 13 6 17 16 50 22 75 12 49 31
100 53 142 13 25 12 29 -5 38 -30 16 -47 2 -60 -48 -18 -72 -19 -74 -29 -68
-5 4 -13 21 -16 39 -10 45 -33 87 -48 87 -6 0 -18 -4 -26 -9z"/>
<path d="M4817 3996 c-37 -40 -53 -109 -38 -163 22 -83 62 -113 132 -98 25 6
30 11 27 33 -3 24 -8 27 -43 30 -39 3 -65 22 -65 49 0 9 16 13 54 13 62 0 70
10 61 74 -9 55 -26 76 -68 83 -30 4 -40 1 -60 -21z m73 -51 c10 -12 10 -18 0
-30 -18 -22 -60 -20 -60 3 0 37 38 54 60 27z"/>
<path d="M5039 4013 l-37 -4 -4 -127 c-5 -136 1 -156 40 -146 21 6 22 11 22
106 l0 99 31 11 c25 8 30 15 27 37 -3 28 -14 31 -79 24z"/>
<path d="M5220 4010 c-13 -8 -13 -14 -2 -42 8 -18 16 -42 19 -53 3 -11 11 -33
18 -50 7 -16 17 -49 22 -72 9 -37 7 -45 -15 -73 -23 -30 -24 -32 -7 -50 10
-11 23 -20 29 -20 24 0 63 84 76 165 10 61 31 133 48 162 11 19 9 24 -10 34
-18 10 -24 8 -39 -10 -10 -12 -21 -43 -25 -69 -10 -74 -20 -83 -33 -32 -28
110 -45 133 -81 110z"/>
<path d="M5479 3999 c-61 -61 -63 -168 -6 -241 17 -21 85 -24 108 -5 71 58 64
217 -11 257 -30 16 -69 11 -91 -11z m76 -53 c15 -11 19 -26 19 -69 -1 -65 -7
-77 -39 -77 -27 0 -55 42 -55 83 0 24 34 77 49 77 4 0 16 -6 26 -14z"/>
<path d="M5688 4007 c-13 -10 -14 -30 -9 -119 9 -139 19 -152 109 -145 35 3
65 6 67 8 2 2 5 60 6 127 3 111 2 125 -15 134 -32 18 -41 -6 -41 -110 l0 -97
-27 -3 c-39 -5 -50 24 -47 120 3 64 0 81 -12 89 -10 5 -22 4 -31 -4z"/>
<path d="M5951 4011 l-34 -6 1 -129 c1 -136 7 -155 45 -134 17 9 19 19 16 101
-4 90 -4 92 22 104 35 17 53 39 45 58 -6 16 -34 17 -95 6z"/>
<path d="M6177 4013 c-4 -3 -7 -17 -7 -29 0 -20 6 -23 43 -26 46 -3 61 -30 19
-36 -25 -4 -92 -68 -92 -89 0 -7 11 -31 25 -53 24 -39 27 -40 80 -40 69 0 73
7 70 134 -2 94 -3 101 -29 123 -26 22 -93 32 -109 16z m88 -178 c0 -25 -4 -30
-25 -30 -28 0 -39 27 -19 51 20 24 44 13 44 -21z"/>
<path d="M6408 4013 l-28 -4 -2 -150 c-1 -82 -2 -161 -2 -176 -1 -25 3 -28 29
-28 28 0 30 3 33 43 3 39 5 42 33 42 22 0 35 9 59 42 37 51 41 127 10 187 -24
48 -49 56 -132 44z m90 -137 c3 -61 1 -67 -20 -75 -37 -14 -48 4 -48 78 0 77
12 98 44 77 17 -11 22 -26 24 -80z"/>
<path d="M6882 4013 c-24 -9 -52 -81 -52 -133 0 -81 38 -136 101 -146 45 -7
71 12 58 44 -6 17 -16 22 -42 22 -35 0 -53 12 -59 40 -2 12 11 16 57 20 57 5
60 6 63 34 5 41 -4 69 -32 99 -24 26 -61 34 -94 20z m68 -77 c0 -16 -7 -27
-20 -31 -25 -8 -40 1 -40 24 0 24 9 31 37 31 18 0 23 -6 23 -24z"/>
<path d="M7519 3988 c-26 -30 -29 -39 -29 -104 0 -57 4 -78 23 -105 25 -37 71
-55 112 -45 21 5 26 12 23 34 -3 24 -8 28 -48 32 -40 4 -45 8 -48 32 -3 26 -2
27 55 30 56 3 58 4 61 32 5 41 -4 69 -32 99 -36 38 -79 36 -117 -5z m87 -43
c9 -22 -13 -44 -36 -38 -19 5 -27 33 -13 46 12 13 44 7 49 -8z"/>
<path d="M3857 4004 c-4 -4 -7 -65 -7 -136 l0 -129 28 3 27 3 0 130 c0 123 -1
130 -20 133 -12 2 -24 0 -28 -4z"/>
<path d="M7217 3883 c-5 -139 0 -158 40 -142 22 8 22 11 17 126 -7 139 -8 143
-32 143 -18 0 -20 -11 -25 -127z"/>
</g>
</svg>
